<?xml version="1.0" standalone="no"?>
<svg
  width="600"
  height="600"
  viewBox="0 0 600 600"
  xmlns="http://www.w3.org/2000/svg"
>
  <g transform="translate(300,300)">
    <path d="M98.1,-146.8C128.4,-133.1,155.2,-108.1,182.3,-75.4C209.4,-42.7,236.8,-2.4,238.3,39C239.7,80.3,215.1,122.7,181.7,152.8C148.4,182.9,106.3,200.9,62.8,213.3C19.3,225.8,-25.5,232.8,-72.4,227.7C-119.3,222.6,-168.1,205.3,-201,171.7C-234,138.2,-251.1,88.4,-259.5,36.7C-268,-15,-267.7,-68.6,-245.8,-110.5C-223.9,-152.4,-180.3,-182.6,-135.8,-189.7C-91.2,-196.9,-45.6,-180.9,-5.9,-171.8C33.9,-162.7,67.8,-160.4,98.1,-146.8Z" fill="#0693e3" />
  </g>
</svg>
  